
        <svg xmlns="http://www.w3.org/2000/svg" xmlns:xlink="http://www.w3.org/1999/xlink" version="1.1" width="3300" 
        height="2016.1049254215925" viewBox="0 0 3300 2016.1049254215925">
			<rect fill="#112d4e" width="3300" height="2016.1049254215925"/>
			<g transform="scale(15) translate(10, 10)">
				<defs id="SvgjsDefs4435"><linearGradient id="SvgjsLinearGradient4440"><stop id="SvgjsStop4441" stop-color="#b88746" offset="0"></stop><stop id="SvgjsStop4442" stop-color="#fdf5a6" offset="1"></stop></linearGradient><linearGradient id="SvgjsLinearGradient4443"><stop id="SvgjsStop4444" stop-color="#b88746" offset="0"></stop><stop id="SvgjsStop4445" stop-color="#fdf5a6" offset="1"></stop></linearGradient></defs><g id="SvgjsG4436" featureKey="symbolFeature-0" transform="matrix(1.3413894108470492,0,0,1.3413894108470492,33.25078159310283,-33.113540101441075)" fill="url(#SvgjsLinearGradient4440)"><g xmlns="http://www.w3.org/2000/svg"><g><path d="M49.919,64.35c-0.147,0-0.294-0.031-0.435-0.089L27.857,55v13.661c0,0,8.729,10.173,22.252,10.199v0.002    c0.008,0,0.017-0.002,0.025-0.002c0.005,0,0.013,0.002,0.021,0.002V78.86c13.523-0.026,22.252-10.199,22.252-10.199V55.039    l-22.062,9.226C50.211,64.321,50.065,64.35,49.919,64.35z"></path><path d="M48.721,46.977c-8.465-1.005-18.707-2.066-23.296,3.45l2.432,1.087v0.003l22.068,9.448l0.002-0.002v0.002L93,42.954    L50.193,24.686L7.268,42.696l13.785,5.901c-0.83,1.074-2.46,4.405-3.057,5.689c-1.003,0.169-1.779,0.999-1.779,2.05    c0,0.748,0.411,1.375,0.997,1.751h-0.069l-1.625,10.38h5.443l-1.435-10.38h-0.069c0.588-0.376,0.999-1.003,0.999-1.751    c0-0.456-0.177-0.854-0.419-1.2c2.434-5.186,7.922-10.538,14.543-11.759c4.585-0.696,9.637-0.491,14.146,0.043    c0.607,0.071,1.479,1.477,1.407,2.082C50.062,46.107,49.331,47.059,48.721,46.977z"></path></g></g></g><g id="SvgjsG4437" featureKey="nameFeature-0" transform="matrix(0.719321017858558,0,0,0.719321017858558,-1.8702345778324527,85.23133355592596)" fill="url(#SvgjsLinearGradient4443)"><path d="M26.16 12 l5.24 0 l0 28 l-5.48 0 l0 -18.44 l-8.92 12.36 l-8.92 -12.36 l0 18.44 l-5.48 0 l0 -28 l5.24 0 l9.16 13.24 z M42.57 40.56 c-5.6 0 -10 -4.56 -10 -10.68 c0 -6.16 4.4 -10.68 10 -10.68 c2.84 0 5.08 1.16 6.52 3 l0 -2.44 l5.32 0 l0 20.24 l-5.32 0 l0 -2.48 c-1.44 1.84 -3.68 3.04 -6.52 3.04 z M43.49 35.84 c3.2 0 5.76 -2.48 5.76 -6 c0 -3.48 -2.56 -5.92 -5.76 -5.92 c-3.32 0 -5.68 2.44 -5.68 5.92 c0 3.52 2.36 6 5.68 6 z M64.78 40.56 c-5 0 -8.84 -2.96 -9.84 -6.24 l4.76 -1.4 c0.68 1.92 2.6 3.36 5.28 3.36 c2.04 0 3.36 -0.96 3.36 -2.08 c0 -1 -0.76 -1.56 -2.24 -2 l-5.16 -1.52 c-2.88 -0.84 -5 -2.52 -5 -5.4 c0 -3.4 3.68 -6.08 8.12 -6.08 c4.36 0 7.68 2.08 8.96 5.12 l-4.68 1.36 c-0.72 -1.28 -2.2 -2.36 -4.32 -2.36 c-1.64 0 -2.88 0.88 -2.88 1.84 c0 0.8 0.56 1.28 1.68 1.6 l5.04 1.44 c3.04 0.88 5.68 2.12 5.68 5.76 c0 3.8 -3.6 6.6 -8.76 6.6 z M86.35 35.08 l1.28 4.28 c-1.6 0.64 -3.04 0.96 -4.72 0.96 c-4.64 0 -6.76 -2.88 -6.76 -7.24 l0 -8.68 l-3.4 0 l0 -4.64 l3.4 0 l0 -6.56 l5.32 0 l0 6.56 l5.92 0 l0 4.64 l-5.92 0 l0 8.68 c0 1.64 0.8 2.56 2.48 2.56 c0.92 0 1.6 -0.16 2.4 -0.56 z M98.24 40.56 c-6.48 0 -11 -4.28 -11 -10.68 c0 -6.04 4.24 -10.68 10.6 -10.68 c6.64 0 10.44 4.6 10.44 10.4 c0 0.64 0 1.24 -0.12 1.88 l-15.72 0 c0.36 2.6 2.2 4.6 5.88 4.6 c2.56 0 4.12 -1.16 4.92 -2.68 l4.76 1.4 c-1.16 2.64 -4.44 5.76 -9.76 5.76 z M92.44 28.16 l10.68 0 c-0.24 -2.48 -2.16 -4.48 -5.32 -4.48 c-3.08 0 -5.08 2.16 -5.36 4.48 z M114.77 22.76 c1.2 -2.36 3.52 -3.72 6.68 -3.28 l0 4.96 c-4.32 -0.68 -6.68 1.32 -6.68 6.76 l0 8.8 l-5.28 0 l0 -20.24 l5.28 0 l0 3 z M140.3 12 l6.16 0 l-10.6 17.72 l0 10.28 l-5.56 0 l0 -10.28 l-10.64 -17.72 l6.2 0 l7.24 12.44 z M156.03 40.56 c-6.24 0 -10.84 -4.64 -10.84 -10.68 c0 -6.08 4.6 -10.68 10.84 -10.68 s10.8 4.6 10.8 10.68 c0 6.04 -4.56 10.68 -10.8 10.68 z M156.03 35.76 c3.36 0 5.68 -2.52 5.68 -5.88 s-2.32 -5.88 -5.68 -5.88 c-3.4 0 -5.68 2.52 -5.68 5.88 s2.28 5.88 5.68 5.88 z M182.32000000000002 19.76 l5.28 0 l0 20.24 l-5.28 0 l0 -2.56 c-1.36 1.8 -3.56 3.12 -6.48 3.12 c-5.32 0 -8 -3.56 -8 -9 l0 -11.8 l5.28 0 l0 10.8 c0 3.08 1.4 5.08 4.32 5.08 c3 0 4.88 -2.32 4.88 -5.92 l0 -9.96 z M195.29000000000002 22.76 c1.2 -2.36 3.52 -3.72 6.68 -3.28 l0 4.96 c-4.32 -0.68 -6.68 1.32 -6.68 6.76 l0 8.8 l-5.28 0 l0 -20.24 l5.28 0 l0 3 z M234.10000000000002 12 l5.76 0 l-8.48 28 l-5.8 0 l-5.52 -18.8 l-5.52 18.8 l-5.8 0 l-8.52 -28 l5.76 0 l5.76 20.28 l5.84 -20.28 l4.92 0 l5.84 20.28 z M247.59000000000003 40.56 c-6.48 0 -11 -4.28 -11 -10.68 c0 -6.04 4.24 -10.68 10.6 -10.68 c6.64 0 10.44 4.6 10.44 10.4 c0 0.64 0 1.24 -0.12 1.88 l-15.72 0 c0.36 2.6 2.2 4.6 5.88 4.6 c2.56 0 4.12 -1.16 4.92 -2.68 l4.76 1.4 c-1.16 2.64 -4.44 5.76 -9.76 5.76 z M241.79000000000005 28.16 l10.68 0 c-0.24 -2.48 -2.16 -4.48 -5.32 -4.48 c-3.08 0 -5.08 2.16 -5.36 4.48 z M270.68000000000006 19.2 c5.6 0 9.96 4.52 9.96 10.68 c0 6.12 -4.36 10.68 -9.96 10.68 c-2.88 0 -5.08 -1.2 -6.56 -3.04 l0 2.48 l-5.28 0 l0 -29.2 l5.28 0 l0 11.4 c1.48 -1.84 3.68 -3 6.56 -3 z M269.76000000000005 35.84 c3.32 0 5.68 -2.48 5.68 -6 c0 -3.48 -2.36 -5.92 -5.68 -5.92 c-3.2 0 -5.76 2.44 -5.76 5.92 c0 3.52 2.56 6 5.76 6 z"></path></g>
			</g>
		</svg>
	